<svg width="48" height="48" viewBox="0 0 48 48" fill="none" xmlns="http://www.w3.org/2000/svg">
<rect width="48" height="48" fill="white" fill-opacity="0.01"/>
<mask id="mask0_152_6702" style="mask-type:alpha" maskUnits="userSpaceOnUse" x="10" y="5" width="29" height="35">
<path fill-rule="evenodd" clip-rule="evenodd" d="M15.8531 5.54806L35.1716 10.7244C37.3054 11.2962 38.5718 13.4896 38 15.6234C37.4282 17.7573 35.2349 19.0236 33.101 18.4518L21.1348 15.2448L21.0385 15.2747L21.0208 15.2148L13.7825 13.2755C11.6486 12.7037 10.3823 10.5103 10.9541 8.37648C11.5258 6.24262 13.7192 4.97629 15.8531 5.54806ZM38 24C38 21.7908 36.2091 20 34 20H14C11.7909 20 10 21.7908 10 24V36C10 38.2091 11.7909 40 14 40H34L34.2985 39.989C36.3682 39.8363 38 38.1087 38 36V24ZM14 22H34L34.2332 22.0134C35.2279 22.1289 36 22.9743 36 24V26H12V24L12.0135 23.7667C12.129 22.772 12.9743 22 14 22ZM30.677 15.7308L29.395 11.2468L34.6542 12.6563L34.876 12.7297C35.8069 13.0987 36.3338 14.1151 36.0684 15.1058C35.7825 16.1727 34.6858 16.8059 33.6189 16.52L30.677 15.7308ZM21.3506 9.09076L22.6326 13.5748L28.4226 15.1268L27.1426 10.6428L21.3506 9.09076ZM14.0783 11.2702C13.1474 10.9012 12.6205 9.88484 12.8859 8.89412C13.1718 7.82719 14.2685 7.19402 15.3354 7.47991L19.0988 8.48677L20.3788 12.9728L14.3001 11.3436L14.0783 11.2702Z" fill="white"/>
</mask>
<g mask="url(#mask0_152_6702)">
<rect width="48" height="48" fill="white"/>
</g>
</svg>
