<svg width="24" height="24" viewBox="0 0 24 24" fill="none" xmlns="http://www.w3.org/2000/svg">
    <defs>
        <path d="M9.67424429,0.168883263 C9.92900593,0.304665455 10.1373769,0.514232742 10.2723841,0.770456986 L12.3857851,4.78139086 L16.7495098,5.36481181 C17.5379157,5.47022005 18.0920826,6.19846891 17.987276,6.99140116 C17.9486904,7.28332745 17.8225397,7.55648779 17.6256438,7.77446147 L14.4783634,11.2586588 L15.606482,16.2290568 C15.7834821,17.0089047 15.2983862,17.785407 14.5229899,17.9634232 C14.1735557,18.0436467 13.8069342,17.9899316 13.4947802,17.8127763 L8.99992226,15.2618306 L4.50506429,17.8127763 C3.81239312,18.2058847 2.93401395,17.9598174 2.54314951,17.2631696 C2.36700547,16.9492234 2.31359698,16.5804972 2.39336252,16.2290568 L3.52148114,11.2586588 L0.374200739,7.77446147 C-0.160609392,7.18239982 -0.11693762,6.26640071 0.47174437,5.72852019 C0.688473797,5.53049386 0.960074849,5.40361896 1.25033474,5.36481181 L5.61405944,4.78139086 L7.72746047,0.770456986 C8.09987825,0.0636611431 8.97148305,-0.205672587 9.67424429,0.168883263 Z" id="path-1"></path>
        <linearGradient x1="99.3512347%" y1="50.6487653%" x2="0.648765297%" y2="50.6487653%" id="linearGradient-3">
            <stop stop-color="#28B3F7" offset="0%"></stop>
            <stop stop-color="#506AFF" offset="100%"></stop>
        </linearGradient>
    </defs>
    <rect width="24" height="24" fill="white" fill-opacity="0.01"/>
    <mask id="mask0_711_4779" style="mask-type:alpha" maskUnits="userSpaceOnUse" x="3" y="5" width="19" height="15">
        <path fill-rule="inherit" clip-rule="evenodd" d="M12.2793 5C13.7994 5 15.0317 6.23225 15.0317 7.75231C15.0317 9.27237 13.7994 10.5046 12.2793 10.5046C10.7593 10.5046 9.52704 9.27237 9.52704 7.75231C9.52704 6.23225 10.7593 5 12.2793 5ZM17.7253 6.35562C18.9731 6.35562 19.9846 7.36716 19.9846 8.61497C19.9846 9.86278 18.9731 10.8743 17.7253 10.8743C16.4775 10.8743 15.4659 9.86278 15.4659 8.61497C15.4659 7.36716 16.4775 6.35562 17.7253 6.35562ZM8.21608 11.9503C7.83242 11.8361 7.41533 11.7781 6.96643 11.7781C4.40084 11.7781 3 13.6904 3 16.2466C3 16.4519 3.13839 16.6314 3.33693 16.6836C3.43378 16.7091 3.52826 16.7335 3.62038 16.7568L4.14484 16.8841C4.64112 16.9987 5.05303 17.0749 5.38251 17.1129C5.63043 17.1415 5.85456 16.9636 5.88312 16.7157C5.91167 16.4678 5.73384 16.2436 5.48592 16.2151L5.33073 16.1949C5.0057 16.1484 4.59286 16.0646 4.09412 15.9433L3.91479 15.8991L3.93362 15.6538C4.1191 13.871 5.16461 12.6818 6.96643 12.6818C7.3299 12.6818 7.66023 12.7278 7.95824 12.8165C8.19743 12.8877 8.44905 12.7515 8.52025 12.5123C8.59145 12.2731 8.45527 12.0215 8.21608 11.9503ZM17.8112 11.7781C20.3768 11.7781 21.7777 13.6904 21.7777 16.2466C21.7777 16.4531 21.6377 16.6333 21.4377 16.6844L21.1454 16.7577L20.5995 16.8862C19.9926 17.0218 19.4906 17.1079 19.091 17.1442C18.8425 17.1668 18.6227 16.9836 18.6001 16.7351C18.5775 16.4865 18.7607 16.2668 19.0092 16.2442C19.3691 16.2115 19.8383 16.1306 20.4144 16.0015L20.8635 15.8964L20.8606 15.8471C20.7367 14.0227 19.7491 12.7705 18.0014 12.6863L17.8112 12.6818C17.4675 12.6818 17.1534 12.7229 16.8682 12.8024C16.6279 12.8694 16.3786 12.7289 16.3116 12.4885C16.2446 12.2481 16.3852 11.9989 16.6256 11.9319C16.9915 11.8298 17.3872 11.7781 17.8112 11.7781ZM17.7611 17.9765C17.7611 14.4876 15.8666 11.9013 12.3889 11.9013C8.91121 11.9013 7.01664 14.4876 7.01664 17.9765C7.01664 18.1731 7.14381 18.3472 7.33115 18.407C8.84613 18.8904 10.5324 19.1313 12.3889 19.1313C14.2454 19.1313 15.9316 18.8904 17.4466 18.407C17.634 18.3472 17.7611 18.1731 17.7611 17.9765ZM7.93207 17.5275C8.0799 14.7289 9.62728 12.8051 12.3889 12.8051L12.6044 12.809L12.8267 12.8218C15.3139 13.0159 16.7059 14.8804 16.8457 17.5275L16.8508 17.6416L17.1719 17.546C15.7497 17.9998 14.1557 18.2275 12.3889 18.2275L11.9113 18.2219C10.4915 18.188 9.18723 18.0018 7.99802 17.6641L7.92831 17.6434L7.93207 17.5275ZM9.13972 8.61497C9.13972 7.36716 8.12817 6.35562 6.88036 6.35562C5.63255 6.35562 4.621 7.36716 4.621 8.61497C4.621 9.86278 5.63255 10.8743 6.88036 10.8743C8.12817 10.8743 9.13972 9.86278 9.13972 8.61497ZM16.3697 8.61497C16.3697 7.86629 16.9766 7.25936 17.7253 7.25936C18.474 7.25936 19.0809 7.86629 19.0809 8.61497C19.0809 9.36366 18.474 9.97059 17.7253 9.97059C16.9766 9.97059 16.3697 9.36366 16.3697 8.61497ZM6.88036 7.25936C6.13167 7.25936 5.52474 7.86629 5.52474 8.61497C5.52474 9.36366 6.13167 9.97059 6.88036 9.97059C7.62904 9.97059 8.23597 9.36366 8.23597 8.61497C8.23597 7.86629 7.62904 7.25936 6.88036 7.25936ZM10.4307 7.75231C10.4307 6.73138 11.2583 5.90375 12.2792 5.90375C13.3002 5.90375 14.1278 6.73138 14.1278 7.75231C14.1278 8.77325 13.3002 9.60088 12.2792 9.60088C11.2583 9.60088 10.4307 8.77325 10.4307 7.75231Z" fill="white"/>
    </mask>
    <g mask="url(#mask0_711_4779)">
        <rect width="24" height="24" fill="url(#linearGradient-3)"/>
    </g>
</svg>
