<?xml version="1.0" encoding="UTF-8"?>
<svg width="24px" height="24px" viewBox="0 0 24 24" version="1.1" xmlns="http://www.w3.org/2000/svg" xmlns:xlink="http://www.w3.org/1999/xlink">
    <title>6D051F11-5056-45D3-9A43-3B8AA881D80C</title>
    <defs>
        <path d="M16,0 C17.1045695,0 18,0.8954305 18,2 L18,12 C18,12.5340722 17.7906632,13.0192511 17.4495658,13.3779604 C17.6360287,13.7868855 17.628089,14.2672034 17.4153625,14.6855255 L17.3401686,14.8172972 L17.2508735,14.9438545 L17.1464466,15.0606602 L17.0606602,15.1464466 C16.5600854,15.6470214 15.7862248,15.7239136 15.1827028,15.3401686 L15.0561455,15.2508735 L14.9393398,15.1464466 L13.793,14 L13.705,14 L13.4516932,14.2554136 C12.93913,14.7679767 12.1479092,14.8320471 11.5656817,14.4476248 L11.4442952,14.3583839 L11.3303728,14.2554136 C11.253022,14.1780628 11.1845895,14.0927095 11.1261263,14.000986 L2,14 C0.8954305,14 0,13.1045695 0,12 L0,2 C0,0.8954305 0.8954305,0 2,0 L16,0 Z M10.533239,8.24063616 C10.3034078,8.32682288 10.1743626,8.56411757 10.2166215,8.79738076 L10.2406362,8.88436247 L11.9228684,13.3703152 C11.94793,13.4371461 11.9870096,13.4978368 12.0374796,13.5483068 C12.211046,13.7218732 12.4804704,13.7411583 12.6753385,13.6061623 L12.7445864,13.5483068 L13.75,12.5428932 L15.6238483,14.4181016 L15.6940141,14.4813616 C15.8665608,14.6155248 16.1053091,14.6195309 16.2820014,14.4987349 L16.3535534,14.4393398 L16.4181016,14.3761517 L16.4813616,14.3059859 C16.6155248,14.1334392 16.6195309,13.8946909 16.4987349,13.7179986 L16.4393398,13.6464466 L14.5428932,11.75 L15.5483068,10.7445864 C15.5987769,10.6941163 15.6378564,10.6334256 15.662918,10.5665947 C15.7491047,10.3367635 15.6551727,10.0835083 15.4516398,9.96196862 L15.3703152,9.92286842 L10.8843625,8.24063616 C10.7711699,8.19818895 10.6464316,8.19818895 10.533239,8.24063616 Z M6,6 L3,6 L2.91012437,6.00805567 C2.67687516,6.05039163 2.5,6.25454011 2.5,6.5 C2.5,6.74545989 2.67687516,6.94960837 2.91012437,6.99194433 L3,7 L6,7 L6.08987563,6.99194433 C6.32312484,6.94960837 6.5,6.74545989 6.5,6.5 C6.5,6.25454011 6.32312484,6.05039163 6.08987563,6.00805567 L6,6 Z M15,3 L3,3 L2.91012437,3.00805567 C2.67687516,3.05039163 2.5,3.25454011 2.5,3.5 C2.5,3.74545989 2.67687516,3.94960837 2.91012437,3.99194433 L3,4 L15,4 L15.0898756,3.99194433 C15.3231248,3.94960837 15.5,3.74545989 15.5,3.5 C15.5,3.25454011 15.3231248,3.05039163 15.0898756,3.00805567 L15,3 Z" id="path-1"></path>
        <linearGradient x1="99.3512347%" y1="50.6487653%" x2="0.648765297%" y2="50.6487653%" id="linearGradient-3">
            <stop stop-color="#28B3F7" offset="0%"></stop>
            <stop stop-color="#506AFF" offset="100%"></stop>
        </linearGradient>
    </defs>
    <g id="Page-1" stroke="none" stroke-width="1" fill="none" fill-rule="evenodd">
        <g id="Branding---Open-Menus-1440px" transform="translate(-28.000000, -153.000000)">
            <g id="Web/Organisms/Menu" transform="translate(0.000000, 60.000000)">
                <g id="Group" transform="translate(18.000000, 30.000000)">
                    <g id="Web/Molecules/Menu/Buttons/Active" transform="translate(0.000000, 50.000000)">
                        <g id="Icons/24px/Page-Filled" transform="translate(10.000000, 13.000000)">
                            <g id="Page" transform="translate(3.000000, 5.000000)">
                                <mask id="mask-2" fill="white">
                                    <use xlink:href="#path-1"></use>
                                </mask>
                                <g fill-rule="nonzero"></g>
                                <g id="colors/primary/Deep-ocean" mask="url(#mask-2)" fill="url(#linearGradient-3)">
                                    <g transform="translate(-3.000000, -5.000000)" id="color">
                                        <rect x="0" y="0" width="24" height="24"></rect>
                                    </g>
                                </g>
                            </g>
                        </g>
                    </g>
                </g>
            </g>
        </g>
    </g>
</svg>