<?xml version="1.0" encoding="UTF-8"?>
<svg width="24px" height="24px" viewBox="0 0 24 24" version="1.1" xmlns="http://www.w3.org/2000/svg" xmlns:xlink="http://www.w3.org/1999/xlink">
    <title>9D431BFF-F4E7-4E03-AC68-6C80148C3991</title>
    <defs>
        <path d="M2.84917717,10 L5.14723323,10 C5.89532027,10.0133188 6.2958364,10.1024794 6.71085033,10.3244313 C7.12391049,10.5453383 7.4510721,10.8724999 7.67197909,11.2855601 C7.89393097,11.700574 7.98309162,12.1010901 7.99641039,12.8491772 L7.9982052,13.0620904 L7.9982052,14.93432 C7.9982052,15.822619 7.91410841,16.2581079 7.67197909,16.7108503 C7.4510721,17.1239105 7.12391049,17.4510721 6.71085033,17.6719791 C6.2958364,17.893931 5.89532027,17.9830916 5.14723323,17.9964104 L4.93432,17.9982052 L3.0620904,17.9982052 C2.17379142,17.9982052 1.73830253,17.9141084 1.28556006,17.6719791 C0.872499901,17.4510721 0.545338294,17.1239105 0.324431302,16.7108503 C0.102479423,16.2958364 0.0133187755,15.8953203 0,15.1472332 L0,12.8491772 C0.0133187755,12.1010901 0.102479423,11.700574 0.324431302,11.2855601 C0.545338294,10.8724999 0.872499901,10.5453383 1.28556006,10.3244313 C1.70057399,10.1024794 2.10109012,10.0133188 2.84917717,10 L2.84917717,10 Z M12.8491772,10 L15.1472332,10 C15.8953203,10.0133188 16.2958364,10.1024794 16.7108503,10.3244313 C17.1239105,10.5453383 17.4510721,10.8724999 17.6719791,11.2855601 C17.893931,11.700574 17.9830916,12.1010901 17.9964104,12.8491772 L17.9982052,13.0620904 L17.9982052,14.93432 C17.9982052,15.822619 17.9141084,16.2581079 17.6719791,16.7108503 C17.4510721,17.1239105 17.1239105,17.4510721 16.7108503,17.6719791 C16.2958364,17.893931 15.8953203,17.9830916 15.1472332,17.9964104 L14.93432,17.9982052 L13.0620904,17.9982052 C12.1737914,17.9982052 11.7383025,17.9141084 11.2855601,17.6719791 C10.8724999,17.4510721 10.5453383,17.1239105 10.3244313,16.7108503 C10.1024794,16.2958364 10.0133188,15.8953203 10,15.1472332 L10,12.8491772 C10.0133188,12.1010901 10.1024794,11.700574 10.3244313,11.2855601 C10.5453383,10.8724999 10.8724999,10.5453383 11.2855601,10.3244313 C11.700574,10.1024794 12.1010901,10.0133188 12.8491772,10 L12.8491772,10 Z M2.84917717,0 L5.14723323,0 C5.89532027,0.0133187755 6.2958364,0.102479423 6.71085033,0.324431302 C7.12391049,0.545338294 7.4510721,0.872499901 7.67197909,1.28556006 C7.89393097,1.70057399 7.98309162,2.10109012 7.99641039,2.84917717 L7.9982052,3.0620904 L7.9982052,4.93432 C7.9982052,5.82261898 7.91410841,6.25810786 7.67197909,6.71085033 C7.4510721,7.12391049 7.12391049,7.4510721 6.71085033,7.67197909 C6.2958364,7.89393097 5.89532027,7.98309162 5.14723323,7.99641039 L4.93432,7.9982052 L3.0620904,7.9982052 C2.17379142,7.9982052 1.73830253,7.91410841 1.28556006,7.67197909 C0.872499901,7.4510721 0.545338294,7.12391049 0.324431302,6.71085033 C0.102479423,6.2958364 0.0133187755,5.89532027 0,5.14723323 L0,2.84917717 C0.0133187755,2.10109012 0.102479423,1.70057399 0.324431302,1.28556006 C0.545338294,0.872499901 0.872499901,0.545338294 1.28556006,0.324431302 C1.70057399,0.102479423 2.10109012,0.0133187755 2.84917717,0 Z M12.8491772,0 L15.1472332,0 C15.8953203,0.0133187755 16.2958364,0.102479423 16.7108503,0.324431302 C17.1239105,0.545338294 17.4510721,0.872499901 17.6719791,1.28556006 C17.893931,1.70057399 17.9830916,2.10109012 17.9964104,2.84917717 L17.9982052,3.0620904 L17.9982052,4.93432 C17.9982052,5.82261898 17.9141084,6.25810786 17.6719791,6.71085033 C17.4510721,7.12391049 17.1239105,7.4510721 16.7108503,7.67197909 C16.2958364,7.89393097 15.8953203,7.98309162 15.1472332,7.99641039 L14.93432,7.9982052 L13.0620904,7.9982052 C12.1737914,7.9982052 11.7383025,7.91410841 11.2855601,7.67197909 C10.8724999,7.4510721 10.5453383,7.12391049 10.3244313,6.71085033 C10.1024794,6.2958364 10.0133188,5.89532027 10,5.14723323 L10,2.84917717 C10.0133188,2.10109012 10.1024794,1.70057399 10.3244313,1.28556006 C10.5453383,0.872499901 10.8724999,0.545338294 11.2855601,0.324431302 C11.700574,0.102479423 12.1010901,0.0133187755 12.8491772,0 L12.8491772,0 Z" id="path-1"></path>
        <linearGradient x1="99.3512347%" y1="50.6487653%" x2="0.648765297%" y2="50.6487653%" id="linearGradient-3">
            <stop stop-color="#28B3F7" offset="0%"></stop>
            <stop stop-color="#506AFF" offset="100%"></stop>
        </linearGradient>
    </defs>
    <g id="Page-1" stroke="none" stroke-width="1" fill="none" fill-rule="evenodd">
        <g id="Pages-Example" transform="translate(-28.000000, -103.000000)">
            <g id="Web/Organisms/Menu" transform="translate(0.000000, 60.000000)">
                <g id="Group" transform="translate(18.000000, 30.000000)">
                    <g id="Icons/24px/Desk--Filled" transform="translate(10.000000, 13.000000)">
                        <g id="🎨" transform="translate(3.000000, 3.000000)">
                            <mask id="mask-2" fill="white">
                                <use xlink:href="#path-1"></use>
                            </mask>
                            <g id="Mask" fill-rule="nonzero"></g>
                            <g id="colors/primary/Deep-ocean" mask="url(#mask-2)" fill="url(#linearGradient-3)">
                                <g transform="translate(-3.000000, -3.000000)" id="color">
                                    <rect x="0" y="0" width="24" height="24"></rect>
                                </g>
                            </g>
                        </g>
                    </g>
                </g>
            </g>
        </g>
    </g>
</svg>