<svg width="48" height="48" viewBox="0 0 48 48" fill="none" xmlns="http://www.w3.org/2000/svg">
<rect width="48" height="48" fill="white" fill-opacity="0.01"/>
<path d="M9 38.9224H39" stroke="white" stroke-width="3" stroke-linecap="round" stroke-linejoin="round"/>
<path d="M16.5 38.9224V40.4224C16.8978 40.4224 17.2794 40.2644 17.5607 39.9831L16.5 38.9224ZM9 38.9224H7.5C7.5 39.7509 8.17157 40.4224 9 40.4224V38.9224ZM9 31.4224L7.93934 30.3618C7.65804 30.6431 7.5 31.0246 7.5 31.4224H9ZM30.1742 10.2483L31.2348 11.3089V11.3089L30.1742 10.2483ZM32.8258 10.2483L31.7652 11.3089V11.3089L32.8258 10.2483ZM37.6742 15.0966L38.7348 14.036V14.036L37.6742 15.0966ZM37.6742 17.7483L38.7348 18.8089L37.6742 17.7483ZM16.5 37.4224H9V40.4224H16.5V37.4224ZM10.5 38.9224V31.4224H7.5V38.9224H10.5ZM10.0607 32.4831L31.2348 11.3089L29.1135 9.18761L7.93934 30.3618L10.0607 32.4831ZM31.7652 11.3089L36.6135 16.1573L38.7348 14.036L33.8865 9.18761L31.7652 11.3089ZM36.6135 16.6876L15.4393 37.8618L17.5607 39.9831L38.7348 18.8089L36.6135 16.6876ZM36.6135 16.1573C36.76 16.3037 36.76 16.5412 36.6135 16.6876L38.7348 18.8089C40.0529 17.4909 40.0529 15.354 38.7348 14.036L36.6135 16.1573ZM31.2348 11.3089C31.3813 11.1625 31.6187 11.1625 31.7652 11.3089L33.8865 9.18761C32.5685 7.86959 30.4315 7.86959 29.1135 9.18761L31.2348 11.3089Z" fill="white"/>
<path d="M24 16.4224L31.5 23.9224" stroke="white" stroke-width="3" stroke-linecap="round" stroke-linejoin="round"/>
<rect x="31.864" y="10.5" width="9" height="9" transform="rotate(45 31.864 10.5)" fill="white"/>
</svg>
