<svg width="24" height="24" viewBox="0 0 24 24" fill="none" xmlns="http://www.w3.org/2000/svg">
<rect width="24" height="24" fill="white" fill-opacity="0.01"/>
<mask id="mask0_2536_52306" style="mask-type:alpha" maskUnits="userSpaceOnUse" x="2" y="6" width="20" height="12">
<path fill-rule="evenodd" clip-rule="evenodd" d="M18.0881 10.4428C17.3726 8.13289 15.1247 6.5 12.5294 6.5L12.2767 6.50518C10.1801 6.59126 8.31885 7.74373 7.37634 9.48224L7.342 9.547L7.23137 9.53095C7.05803 9.51039 6.88262 9.5 6.70588 9.5C4.38923 9.5 2.5 11.2843 2.5 13.5C2.5 15.7157 4.38923 17.5 6.70588 17.5H17.8235C19.8478 17.5 21.5 15.9396 21.5 14L21.4949 13.8135C21.3998 12.0848 19.9905 10.6966 18.2103 10.5192L18.108 10.511L18.0881 10.4428ZM11.7157 8.58859C11.8862 8.47047 12.1138 8.47047 12.2843 8.58859L12.3536 8.64645L14.9708 11.1935L15.0286 11.2627C15.1636 11.4576 15.1443 11.727 14.9708 11.9006C14.7972 12.0741 14.5278 12.0934 14.3329 11.9584L14.2637 11.9006L12.5 10.207V15.2388L12.4919 15.3287C12.4496 15.5619 12.2455 15.7388 12 15.7388C11.7545 15.7388 11.5504 15.5619 11.5081 15.3287L11.5 15.2388V10.207L9.69574 11.9006L9.62649 11.9584C9.45598 12.0765 9.22839 12.0765 9.05788 11.9584L8.98864 11.9006L8.93078 11.8313C8.81266 11.6608 8.81266 11.4332 8.93078 11.2627L8.98864 11.1935L11.6464 8.64645L11.7157 8.58859Z" fill="white"/>
</mask>
<g mask="url(#mask0_2536_52306)">
<rect width="24" height="24" fill="url(#paint0_linear_2536_52306)"/>
</g>
<defs>
<linearGradient id="paint0_linear_2536_52306" x1="23.8443" y1="0.311407" x2="0.155704" y2="0.311407" gradientUnits="userSpaceOnUse">
<stop stop-color="#28B3F7"/>
<stop offset="1" stop-color="#506AFF"/>
</linearGradient>
</defs>
</svg>
