<svg width="24" height="24" viewBox="0 0 24 24" fill="none" xmlns="http://www.w3.org/2000/svg">
<rect width="24" height="24" fill="white" fill-opacity="0.01"/>
<mask id="mask0_152_6747" style="mask-type:alpha" maskUnits="userSpaceOnUse" x="3" y="6" width="18" height="12">
<path fill-rule="evenodd" clip-rule="evenodd" d="M15 8C15 6.89543 14.1046 6 13 6H5C3.89543 6 3 6.89543 3 8V16C3 17.1046 3.89543 18 5 18H13C14.1046 18 15 17.1046 15 16V8ZM21 9C21 8.44772 20.5523 8 20 8H19C17.8954 8 17 8.89543 17 10V14C17 15.1046 17.8954 16 19 16H20C20.5523 16 21 15.5523 21 15V9Z" fill="white"/>
</mask>
<g mask="url(#mask0_152_6747)">
<rect width="24" height="24" fill="white"/>
</g>
</svg>
