<svg width="48" height="48" viewBox="0 0 48 48" fill="none" xmlns="http://www.w3.org/2000/svg">
<rect width="48" height="48" fill="white" fill-opacity="0.01"/>
<path fill-rule="evenodd" clip-rule="evenodd" d="M40.9894 13.6712C40.8201 11.0631 38.651 9 36 9H12L11.6712 9.01064C9.06307 9.17992 7 11.349 7 14V30.2588L7.01064 30.5876L7.0421 30.9106C7.36152 33.3641 9.45949 35.2588 12 35.2588L23.476 35.258L27.1795 40.5717L27.2984 40.7133L27.4517 40.8374C27.8854 41.1217 28.4989 41.0332 28.8205 40.5717L32.522 35.258L36 35.2588L36.3288 35.2482C38.9369 35.0789 41 32.9098 41 30.2588V14L40.9894 13.6712ZM18.6569 16.9998C20.1767 16.9998 21.6035 17.6032 22.6569 18.6566C23.0474 19.0471 23.0474 19.6803 22.6569 20.0708C22.2663 20.4613 21.6332 20.4613 21.2427 20.0708C20.5606 19.3888 19.6408 18.9998 18.6569 18.9998C16.6372 18.9998 15 20.637 15 22.6566C15 24.6762 16.6372 26.3135 18.6569 26.3135C19.6408 26.3135 20.5606 25.9244 21.2427 25.2424C21.6332 24.8519 22.2663 24.8519 22.6569 25.2424C23.0474 25.6329 23.0474 26.2661 22.6569 26.6566C21.6035 27.71 20.1767 28.3135 18.6569 28.3135C15.5327 28.3135 13 25.7808 13 22.6566C13 19.5324 15.5327 16.9998 18.6569 16.9998ZM30.6569 16.9998C32.1767 16.9998 33.6035 17.6032 34.6569 18.6566C35.0474 19.0471 35.0474 19.6803 34.6569 20.0708C34.2663 20.4613 33.6332 20.4613 33.2427 20.0708C32.5606 19.3888 31.6408 18.9998 30.6569 18.9998C28.6372 18.9998 27 20.637 27 22.6566C27 24.6762 28.6372 26.3135 30.6569 26.3135C31.6408 26.3135 32.5606 25.9244 33.2427 25.2424C33.6332 24.8519 34.2663 24.8519 34.6569 25.2424C35.0474 25.6329 35.0474 26.2661 34.6569 26.6566C33.6035 27.71 32.1767 28.3135 30.6569 28.3135C27.5327 28.3135 25 25.7808 25 22.6566C25 19.5324 27.5327 16.9998 30.6569 16.9998Z" fill="#979797"/>
<mask id="mask0_152_6691" style="mask-type:alpha" maskUnits="userSpaceOnUse" x="7" y="9" width="34" height="32">
<path fill-rule="evenodd" clip-rule="evenodd" d="M40.9894 13.6712C40.8201 11.0631 38.651 9 36 9H12L11.6712 9.01064C9.06307 9.17992 7 11.349 7 14V30.2588L7.01064 30.5876L7.0421 30.9106C7.36152 33.3641 9.45949 35.2588 12 35.2588L23.476 35.258L27.1795 40.5717L27.2984 40.7133L27.4517 40.8374C27.8854 41.1217 28.4989 41.0332 28.8205 40.5717L32.522 35.258L36 35.2588L36.3288 35.2482C38.9369 35.0789 41 32.9098 41 30.2588V14L40.9894 13.6712ZM18.6569 16.9998C20.1767 16.9998 21.6035 17.6032 22.6569 18.6566C23.0474 19.0471 23.0474 19.6803 22.6569 20.0708C22.2663 20.4613 21.6332 20.4613 21.2427 20.0708C20.5606 19.3888 19.6408 18.9998 18.6569 18.9998C16.6372 18.9998 15 20.637 15 22.6566C15 24.6762 16.6372 26.3135 18.6569 26.3135C19.6408 26.3135 20.5606 25.9244 21.2427 25.2424C21.6332 24.8519 22.2663 24.8519 22.6569 25.2424C23.0474 25.6329 23.0474 26.2661 22.6569 26.6566C21.6035 27.71 20.1767 28.3135 18.6569 28.3135C15.5327 28.3135 13 25.7808 13 22.6566C13 19.5324 15.5327 16.9998 18.6569 16.9998ZM30.6569 16.9998C32.1767 16.9998 33.6035 17.6032 34.6569 18.6566C35.0474 19.0471 35.0474 19.6803 34.6569 20.0708C34.2663 20.4613 33.6332 20.4613 33.2427 20.0708C32.5606 19.3888 31.6408 18.9998 30.6569 18.9998C28.6372 18.9998 27 20.637 27 22.6566C27 24.6762 28.6372 26.3135 30.6569 26.3135C31.6408 26.3135 32.5606 25.9244 33.2427 25.2424C33.6332 24.8519 34.2663 24.8519 34.6569 25.2424C35.0474 25.6329 35.0474 26.2661 34.6569 26.6566C33.6035 27.71 32.1767 28.3135 30.6569 28.3135C27.5327 28.3135 25 25.7808 25 22.6566C25 19.5324 27.5327 16.9998 30.6569 16.9998Z" fill="white"/>
</mask>
<g mask="url(#mask0_152_6691)">
<rect width="48" height="48" fill="white"/>
</g>
</svg>
